<svg width="36" height="36" viewBox="0 0 36 36" fill="none" xmlns="http://www.w3.org/2000/svg">
<g clip-path="url(#clip0_20_185)">
<circle cx="18" cy="18" r="17.25" fill="#E8373E" stroke="white" stroke-width="1.5"/>
<mask id="path-2-inside-1_20_185" fill="white">
<path fill-rule="evenodd" clip-rule="evenodd" d="M4.5 29.9062V29.25C4.5 24.7612 13.4944 22.5 18 22.5C22.5056 22.5 31.5 24.7612 31.5 29.25V29.9062C28.2017 33.6431 23.3761 36 18 36C12.6239 36 7.79825 33.6431 4.5 29.9062ZM18 7.5C14.2706 7.5 11.25 10.5206 11.25 14.25C11.25 17.9794 14.2706 21 18 21C21.7294 21 24.75 17.9794 24.75 14.25C24.75 10.5206 21.7294 7.5 18 7.5Z"/>
</mask>
<path fill-rule="evenodd" clip-rule="evenodd" d="M4.5 29.9062V29.25C4.5 24.7612 13.4944 22.5 18 22.5C22.5056 22.5 31.5 24.7612 31.5 29.25V29.9062C28.2017 33.6431 23.3761 36 18 36C12.6239 36 7.79825 33.6431 4.5 29.9062ZM18 7.5C14.2706 7.5 11.25 10.5206 11.25 14.25C11.25 17.9794 14.2706 21 18 21C21.7294 21 24.75 17.9794 24.75 14.25C24.75 10.5206 21.7294 7.5 18 7.5Z" fill="#E8373E"/>
<path d="M4.5 29.9062H3V30.4735L3.37539 30.8988L4.5 29.9062ZM31.5 29.9062L32.6246 30.8988L33 30.4735V29.9062H31.5ZM4.5 29.9062H6V29.25H4.5H3V29.9062H4.5ZM4.5 29.25H6C6 28.6787 6.27426 28.0674 6.99311 27.4039C7.72216 26.731 8.80384 26.1107 10.1182 25.5841C12.7493 24.5301 15.9347 24 18 24V22.5V21C15.5597 21 11.9951 21.6005 9.00258 22.7993C7.50514 23.3992 6.05663 24.1858 4.95843 25.1993C3.85004 26.2223 3 27.5769 3 29.25H4.5ZM18 22.5V24C20.0653 24 23.2507 24.5301 25.8818 25.5841C27.1962 26.1107 28.2778 26.731 29.0069 27.4039C29.7257 28.0674 30 28.6787 30 29.25H31.5H33C33 27.5769 32.15 26.2223 31.0416 25.1993C29.9434 24.1858 28.4949 23.3992 26.9974 22.7993C24.0049 21.6005 20.4403 21 18 21V22.5ZM31.5 29.25H30V29.9062H31.5H33V29.25H31.5ZM31.5 29.9062L30.3754 28.9136C27.3498 32.3416 22.9279 34.5 18 34.5V36V37.5C23.8243 37.5 29.0537 34.9446 32.6246 30.8988L31.5 29.9062ZM18 36V34.5C13.0721 34.5 8.6502 32.3416 5.62461 28.9136L4.5 29.9062L3.37539 30.8988C6.9463 34.9446 12.1757 37.5 18 37.5V36ZM11.25 14.25H12.75C12.75 11.3491 15.0991 9 18 9V7.5V6C13.4422 6 9.75 9.6922 9.75 14.25H11.25ZM18 21V19.5C15.0991 19.5 12.75 17.1509 12.75 14.25H11.25H9.75C9.75 18.8078 13.4422 22.5 18 22.5V21ZM24.75 14.25H23.25C23.25 17.1509 20.9009 19.5 18 19.5V21V22.5C22.5578 22.5 26.25 18.8078 26.25 14.25H24.75ZM18 7.5V9C20.9009 9 23.25 11.3491 23.25 14.25H24.75H26.25C26.25 9.6922 22.5578 6 18 6V7.5Z" fill="white" mask="url(#path-2-inside-1_20_185)"/>
</g>
<defs>
<clipPath id="clip0_20_185">
<rect width="36" height="36" fill="white"/>
</clipPath>
</defs>
</svg>
