<svg width="24" height="24" viewBox="0 0 24 24" fill="none" xmlns="http://www.w3.org/2000/svg">
<path fill-rule="evenodd" clip-rule="evenodd" d="M11.939 5.10928C7.10664 5.10928 2.97984 8.11498 1.30786 12.3578C2.97984 16.6005 7.10664 19.6062 11.939 19.6062C16.7713 19.6062 20.8981 16.6005 22.5701 12.3578C20.8981 8.11498 16.7713 5.10928 11.939 5.10928ZM11.939 17.1901C9.27158 17.1901 7.1067 15.0252 7.1067 12.3578C7.1067 9.69031 9.27158 7.52544 11.939 7.52544C14.6065 7.52544 16.7713 9.69031 16.7713 12.3578C16.7713 15.0252 14.6065 17.1901 11.939 17.1901ZM11.939 9.45836C10.3347 9.45836 9.03963 10.7534 9.03963 12.3578C9.03963 13.9621 10.3347 15.2571 11.939 15.2571C13.5433 15.2571 14.8384 13.9621 14.8384 12.3578C14.8384 10.7534 13.5433 9.45836 11.939 9.45836Z" fill="#757575"/>
</svg>
